<svg xmlns="http://www.w3.org/2000/svg" viewBox="0 0 126.61 126.61">
  <g fill="#f0b90b">
    <polygon points="38.17 53.54 63.31 28.4 88.45 53.54 103.05 38.94 63.31 -0.81 23.56 38.94 38.17 53.54"/>
    <polygon points="0 63.31 14.6 48.7 29.21 63.31 14.6 77.91 0 63.31"/>
    <polygon points="38.17 73.07 63.31 98.21 88.45 73.07 103.06 87.66 63.31 127.42 23.56 87.68 23.55 87.67 38.17 73.07"/>
    <polygon points="97.41 63.31 112.01 48.71 126.61 63.31 112.01 77.92 97.41 63.31"/>
    <polygon points="77.84 63.3 63.31 48.77 52.59 59.49 51.34 60.74 48.78 63.3 63.31 77.84 77.84 63.31 77.84 63.3"/>
  </g>
</svg>
